<svg width="32" height="32" viewBox="0 0 32 32" fill="none" xmlns="http://www.w3.org/2000/svg">
<path d="M26.6667 20V25.3333C26.6669 26.0061 26.4128 26.6541 25.9553 27.1474C25.4979 27.6407 24.8709 27.9429 24.2 27.9933L24 28H7.99999C7.32723 28.0002 6.67924 27.7461 6.18593 27.2887C5.69262 26.8312 5.39045 26.2042 5.34 25.5333L5.33333 25.3333V20H26.6667ZM18.6667 22.6667C18.313 22.6667 17.9739 22.8071 17.7239 23.0572C17.4738 23.3072 17.3333 23.6464 17.3333 24C17.3333 24.3536 17.4738 24.6928 17.7239 24.9428C17.9739 25.1929 18.313 25.3333 18.6667 25.3333C19.0203 25.3333 19.3594 25.1929 19.6095 24.9428C19.8595 24.6928 20 24.3536 20 24C20 23.6464 19.8595 23.3072 19.6095 23.0572C19.3594 22.8071 19.0203 22.6667 18.6667 22.6667ZM22.6667 22.6667C22.313 22.6667 21.9739 22.8071 21.7239 23.0572C21.4738 23.3072 21.3333 23.6464 21.3333 24C21.3333 24.3536 21.4738 24.6928 21.7239 24.9428C21.9739 25.1929 22.313 25.3333 22.6667 25.3333C23.0203 25.3333 23.3594 25.1929 23.6095 24.9428C23.8595 24.6928 24 24.3536 24 24C24 23.6464 23.8595 23.3072 23.6095 23.0572C23.3594 22.8071 23.0203 22.6667 22.6667 22.6667ZM26.6667 12V17.3333H5.33333V12H26.6667ZM24 4C24.7072 4 25.3855 4.28095 25.8856 4.78105C26.3857 5.28115 26.6667 5.95942 26.6667 6.66667V9.33333H5.33333V6.66667C5.33333 5.95942 5.61428 5.28115 6.11438 4.78105C6.61447 4.28095 7.29275 4 7.99999 4H24Z" fill="white"/>
</svg>
