<svg width="32" height="32" viewBox="0 0 32 32" fill="none" xmlns="http://www.w3.org/2000/svg">
<path d="M16 29.3333C14.249 29.3333 12.5152 28.9884 10.8976 28.3184C9.27988 27.6483 7.81003 26.6662 6.57191 25.4281C4.07143 22.9276 2.66667 19.5362 2.66667 16C2.66667 12.4638 4.07143 9.07238 6.57191 6.5719C9.0724 4.07141 12.4638 2.66666 16 2.66666C23.3333 2.66666 29.3333 7.99999 29.3333 14.6667C29.3333 16.7884 28.4905 18.8232 26.9902 20.3235C25.4899 21.8238 23.4551 22.6667 21.3333 22.6667H18.9333C18.5333 22.6667 18.2667 22.9333 18.2667 23.3333C18.2667 23.4667 18.4 23.6 18.4 23.7333C18.9333 24.4 19.2 25.2 19.2 26C19.3333 27.8667 17.8667 29.3333 16 29.3333ZM16 5.33332C13.171 5.33332 10.4579 6.45713 8.45753 8.45752C6.45714 10.4579 5.33334 13.171 5.33334 16C5.33334 18.829 6.45714 21.5421 8.45753 23.5425C10.4579 25.5428 13.171 26.6667 16 26.6667C16.4 26.6667 16.6667 26.4 16.6667 26C16.6667 25.7333 16.5333 25.6 16.5333 25.4667C16 24.8 15.7333 24.1333 15.7333 23.3333C15.7333 21.4667 17.2 20 19.0667 20H21.3333C22.7478 20 24.1044 19.4381 25.1046 18.4379C26.1048 17.4377 26.6667 16.0811 26.6667 14.6667C26.6667 9.46666 21.8667 5.33332 16 5.33332ZM8.66667 13.3333C9.73334 13.3333 10.6667 14.2667 10.6667 15.3333C10.6667 16.4 9.73334 17.3333 8.66667 17.3333C7.6 17.3333 6.66667 16.4 6.66667 15.3333C6.66667 14.2667 7.6 13.3333 8.66667 13.3333ZM12.6667 7.99999C13.7333 7.99999 14.6667 8.93332 14.6667 9.99999C14.6667 11.0667 13.7333 12 12.6667 12C11.6 12 10.6667 11.0667 10.6667 9.99999C10.6667 8.93332 11.6 7.99999 12.6667 7.99999ZM19.3333 7.99999C20.4 7.99999 21.3333 8.93332 21.3333 9.99999C21.3333 11.0667 20.4 12 19.3333 12C18.2667 12 17.3333 11.0667 17.3333 9.99999C17.3333 8.93332 18.2667 7.99999 19.3333 7.99999ZM23.3333 13.3333C24.4 13.3333 25.3333 14.2667 25.3333 15.3333C25.3333 16.4 24.4 17.3333 23.3333 17.3333C22.2667 17.3333 21.3333 16.4 21.3333 15.3333C21.3333 14.2667 22.2667 13.3333 23.3333 13.3333Z" fill="white"/>
</svg>
